Coordinates
version=1
nRows=36
nColumns=30
inDegrees=yes

Units are S.I. units (second, meters, Newtons, ...)
Angles are in degrees.

endheader
time	floatyaw	floatroll	floatpitch	floatx	floaty	floatz	pro_sup_l	deviation_l	flexion_l	cmc_flexion_l	cmc_abduction_l	mp_flexion_l	ip_flexion_l	2mcp_flexion_l	2mcp_abduction_l	2pm_flexion_l	2md_flexion_l	3mcp_flexion_l	3mcp_abduction_l	3pm_flexion_l	3md_flexion_l	4mcp_flexion_l	4mcp_abduction_l	4pm_flexion_l	4md_flexion_l	5mcp_flexion_l	5mcp_abduction_l	5pm_flexion_l	5md_flexion_l
-0.995000	-3.835761	-5.011433	94.526577	-0.007325	-0.269051	-0.005574	92.994199	-0.144827	-2.160901	28.151427	1.387224	-18.948457	-34.732585	18.833061	6.646680	33.555455	20.104717	8.861492	4.680082	35.829071	21.265748	-1.890384	-3.652919	52.642237	32.628101	-22.391272	-10.308233	63.820417	50.417219
-0.985000	-3.835761	-5.011433	94.526577	-0.007313	-0.269050	-0.005592	92.995283	-0.141826	-2.163000	28.152298	1.397156	-18.957577	-34.726451	18.817405	6.650489	33.593397	20.105637	8.839421	4.682474	35.868516	21.266631	-1.882459	-3.669627	52.646182	32.614625	-22.376153	-10.301791	63.824638	50.424542
-0.975000	-3.835761	-5.011433	94.526577	-0.007298	-0.269053	-0.005608	92.996577	-0.136031	-2.166799	28.150856	1.410254	-18.969805	-34.719477	18.791205	6.647105	33.648403	20.117806	8.806409	4.682861	35.922985	21.281066	-1.888390	-3.687542	52.671382	32.605295	-22.373794	-10.285954	63.876634	50.415448
-0.965000	-3.835761	-5.011433	94.526577	-0.007284	-0.269063	-0.005619	92.999190	-0.128117	-2.172367	28.150945	1.421243	-18.986594	-34.716771	18.759210	6.638250	33.708124	20.137260	8.770625	4.680649	35.979358	21.303512	-1.906459	-3.703950	52.711968	32.600436	-22.382551	-10.263543	63.965324	50.398872
-0.955000	-3.835761	-5.011433	94.526577	-0.007275	-0.269077	-0.005622	93.005191	-0.118936	-2.179594	28.158516	1.425369	-19.009138	-34.728327	18.727528	6.627200	33.760225	20.157969	8.741236	4.675961	36.024012	21.325958	-1.931850	-3.716589	52.758937	32.599195	-22.395350	-10.239209	64.071102	50.380503
-0.945000	-3.835761	-5.011433	94.526577	-0.007271	-0.269093	-0.005618	93.017618	-0.108395	-2.187626	28.177946	1.419753	-19.035555	-34.762957	18.700433	6.617492	33.799183	20.174791	8.723596	4.669633	36.051141	21.341770	-1.958296	-3.723805	52.806233	32.600171	-22.402707	-10.218374	64.174851	50.361178
-0.935000	-3.835761	-5.011433	94.526577	-0.007270	-0.269102	-0.005611	93.039270	-0.095258	-2.194707	28.209101	1.403687	-19.060248	-34.821975	18.678428	6.611344	33.828943	20.184781	8.716849	4.662700	36.066239	21.347463	-1.980440	-3.724511	52.854092	32.601563	-22.397083	-10.206083	64.264814	50.338411
-0.925000	-3.835761	-5.011433	94.526577	-0.007266	-0.269097	-0.005609	93.071016	-0.078146	-2.198485	28.246965	1.377687	-19.076005	-34.897003	18.658318	6.608670	33.859833	20.186553	8.714929	4.655798	36.082515	21.341867	-1.996074	-3.718220	52.907497	32.600738	-22.376228	-10.205758	64.337746	50.308750
-0.915000	-3.835761	-5.011433	94.526577	-0.007257	-0.269074	-0.005614	93.110691	-0.057030	-2.196662	28.283830	1.342314	-19.077343	-34.973084	18.635308	6.607363	33.901549	20.178942	8.709925	4.648991	36.112730	21.324441	-2.007006	-3.705309	52.971101	32.594056	-22.343835	-10.217967	64.395043	50.269463
-0.905000	-3.835761	-5.011433	94.526577	-0.007242	-0.269036	-0.005624	93.153073	-0.034093	-2.187839	28.312396	1.298412	-19.063039	-35.034811	18.606445	6.604714	33.956155	20.160572	8.695938	4.642125	36.161528	21.294979	-2.017777	-3.687356	53.044245	32.577926	-22.307721	-10.239761	64.437563	50.219674
-0.895000	-3.835761	-5.011433	94.526577	-0.007227	-0.268990	-0.005633	93.190963	-0.013292	-2.172323	28.328150	1.248801	-19.036603	-35.072150	18.573511	6.599094	34.015379	20.130892	8.671737	4.635378	36.222637	21.255045	-2.032775	-3.667204	53.119491	32.550746	-22.276993	-10.265373	64.462910	50.161444
-0.885000	-3.835761	-5.011433	94.526577	-0.007215	-0.268946	-0.005639	93.217258	0.001288	-2.152521	28.330300	1.199659	-19.004726	-35.083445	18.543084	6.590856	34.064442	20.091919	8.641157	4.629523	36.282383	21.209545	-2.053441	-3.648465	53.185808	32.514325	-22.259194	-10.288570	64.466592	50.100448
-0.875000	-3.835761	-5.011433	94.526577	-0.007211	-0.268911	-0.005639	93.227400	0.007366	-2.132507	28.321278	1.159848	-18.974641	-35.074395	18.523096	6.582008	34.090621	20.049500	8.611042	4.625630	36.327347	21.166874	-2.077385	-3.634552	53.234404	32.473962	-22.257821	-10.305702	64.445790	50.045537
-0.865000	-3.835761	-5.011433	94.526577	-0.007211	-0.268891	-0.005639	93.221097	0.005548	-2.116665	28.305398	1.137985	-18.951755	-35.053865	18.517781	6.574972	34.091259	20.013243	8.587645	4.624408	36.351602	21.137362	-2.099972	-3.627599	53.263299	32.437412	-22.271040	-10.317548	64.403106	50.006739
-0.855000	-3.835761	-5.011433	94.526577	-0.007210	-0.268886	-0.005645	93.202442	-0.001129	-2.107950	28.287829	1.138477	-18.938688	-35.029875	18.524396	6.571359	34.075947	19.994541	8.573562	4.625676	36.359232	21.130311	-2.117152	-3.627745	53.277593	32.412977	-22.292735	-10.328424	64.348210	49.991842
-0.845000	-3.835761	-5.011433	94.526577	-0.007203	-0.268892	-0.005660	93.178519	-0.008842	-2.106849	28.274523	1.158575	-18.935741	-35.008851	18.534096	6.571554	34.061537	20.002685	8.567138	4.628463	36.360952	21.150175	-2.127388	-3.633193	53.285567	32.406677	-22.315913	-10.342797	64.296710	50.002545
-0.835000	-3.835761	-5.011433	94.526577	-0.007186	-0.268904	-0.005682	93.157185	-0.014726	-2.111715	28.272146	1.188554	-18.941755	-34.997502	18.536571	6.575201	34.063500	20.040253	8.564406	4.631739	36.367764	21.193359	-2.131589	-3.641174	53.293926	32.419128	-22.336638	-10.361576	64.266734	50.032017
-0.825000	-3.835761	-5.011433	94.526577	-0.007162	-0.268917	-0.005705	93.144783	-0.017701	-2.120144	28.286545	1.215694	-18.954559	-35.003651	18.525489	6.581881	34.089195	20.100249	8.561769	4.635242	36.386125	21.247913	-2.131706	-3.649370	53.305625	32.443923	-22.355879	-10.380753	64.274167	50.065767
-0.815000	-3.835761	-5.011433	94.526577	-0.007133	-0.268930	-0.005724	93.144417	-0.018198	-2.130359	28.320024	1.230377	-18.971382	-35.033793	18.501589	6.591346	34.136317	20.167338	8.557707	4.639659	36.416833	21.297402	-2.129209	-3.656961	53.320703	32.469207	-22.377662	-10.393543	64.327442	50.086516
-0.805000	-3.835761	-5.011433	94.526577	-0.007107	-0.268943	-0.005736	93.155367	-0.017289	-2.141686	28.369410	1.230847	-18.989695	-35.089046	18.472019	6.603278	34.195790	20.223359	8.553103	4.645991	36.456602	21.327508	-2.124145	-3.664586	53.337879	32.482427	-22.404423	-10.394731	64.423208	50.081410
-0.795000	-3.835761	-5.011433	94.526577	-0.007085	-0.268954	-0.005743	93.174045	-0.015823	-2.153796	28.426566	1.223251	-19.007793	-35.162865	18.446481	6.616992	34.256324	20.254506	8.550259	4.654527	36.500245	21.331817	-2.115201	-3.673329	53.355146	32.475866	-22.432959	-10.384267	64.545039	50.047949
-0.785000	-3.835761	-5.011433	94.526577	-0.007069	-0.268960	-0.005748	93.196250	-0.013856	-2.165249	28.481161	1.216120	-19.024109	-35.242223	18.431901	6.631343	34.308519	20.256367	8.550683	4.664224	36.542625	21.313599	-2.101158	-3.683550	53.369936	32.449642	-22.454736	-10.367556	64.667243	49.995056
-0.775000	-3.835761	-5.011433	94.526577	-0.007058	-0.268953	-0.005756	93.219487	-0.010598	-2.172608	28.524237	1.212783	-19.035878	-35.311566	18.428269	6.644811	34.347462	20.234435	8.552690	4.672953	36.580166	21.283021	-2.083008	-3.694390	53.379942	32.410394	-22.461299	-10.352235	64.763514	49.938410
-0.765000	-3.835761	-5.011433	94.526577	-0.007051	-0.268926	-0.005769	93.243641	-0.005035	-2.171393	28.550871	1.207892	-19.039073	-35.357711	18.428609	6.655750	34.372871	20.200427	8.551103	4.678504	36.611101	21.251866	-2.064693	-3.704211	53.383916	32.366926	-22.451041	-10.343653	64.816525	49.892756
-0.755000	-3.835761	-5.011433	94.526577	-0.007048	-0.268879	-0.005785	93.269300	0.002944	-2.158807	28.560715	1.191771	-19.030555	-35.373653	18.424095	6.662834	34.386326	20.166806	8.540499	4.679752	36.633820	21.228796	-2.050916	-3.711608	53.380886	32.326141	-22.431785	-10.342130	64.822871	49.865897
-0.745000	-3.835761	-5.011433	94.526577	-0.007052	-0.268822	-0.005798	93.294904	0.011675	-2.136429	28.556358	1.159805	-19.010885	-35.359927	18.411308	6.665603	34.387231	20.142474	8.520101	4.677251	36.644607	21.217365	-2.043231	-3.716315	53.368097	32.291832	-22.416806	-10.343599	64.790599	49.857891
-0.735000	-3.835761	-5.011433	94.526577	-0.007063	-0.268768	-0.005804	93.315166	0.017922	-2.110571	28.540870	1.119296	-18.985225	-35.323436	18.396003	6.664909	34.371226	20.131378	8.496086	4.672973	36.637658	21.217062	-2.037807	-3.719407	53.340331	32.266124	-22.417297	-10.342832	64.732105	49.865076
-0.725000	-3.835761	-5.011433	94.526577	-0.007081	-0.268734	-0.005800	93.322494	0.018331	-2.089593	28.516350	1.087700	-18.961133	-35.274653	18.389924	6.662968	34.333317	20.133717	8.478633	4.669371	36.608661	21.225818	-2.027300	-3.722605	53.292708	32.251249	-22.436828	-10.337025	64.658156	49.884859
-0.715000	-3.835761	-5.011433	94.526577	-0.007103	-0.268729	-0.005786	93.310905	0.011279	-2.079780	28.484249	1.082984	-18.944567	-35.224366	18.402926	6.662805	34.273572	20.147824	8.475555	4.668356	36.559491	21.241943	-2.005743	-3.727112	53.225441	32.249705	-22.471058	-10.327771	64.576479	49.916983
-0.705000	-3.835761	-5.011433	94.526577	-0.007123	-0.268751	-0.005768	93.280004	-0.002073	-2.082585	28.446834	1.112742	-18.936870	-35.180930	18.436430	6.667081	34.200267	20.170991	8.487508	4.670667	36.499619	21.264289	-1.972700	-3.732698	53.146409	32.262791	-22.511396	-10.320653	64.493481	49.960627
-0.695000	-3.835761	-5.011433	94.526577	-0.007138	-0.268792	-0.005753	93.236489	-0.018191	-2.094886	28.408421	1.169035	-18.934742	-35.148711	18.482541	6.676724	34.127616	20.198921	8.508361	4.675790	36.442297	21.290750	-1.933661	-3.737586	53.069007	32.288770	-22.548983	-10.322794	64.415391	50.010694
-0.685000	-3.835761	-5.011433	94.526577	-0.007147	-0.268839	-0.005743	93.192129	-0.032683	-2.111507	28.375135	1.231550	-18.932889	-35.127972	18.528157	6.690094	34.070026	20.225043	8.529726	4.682297	36.398217	21.316426	-1.897059	-3.739202	53.006917	32.321932	-22.576696	-10.339343	64.347033	50.057177
-0.675000	-3.835761	-5.011433	94.526577	-0.007153	-0.268884	-0.005738	93.158997	-0.041984	-2.127695	28.352697	1.276906	-18.927298	-35.115866	18.560446	6.703300	34.037043	20.241386	8.545519	4.688368	36.371325	21.333566	-1.870754	-3.735408	52.969703	32.353465	-22.589468	-10.370317	64.289693	50.088540
-0.665000	-3.835761	-5.011433	94.526577	-0.007159	-0.268921	-0.005734	93.144163	-0.044475	-2.140034	28.343232	1.289464	-18.917205	-35.108034	18.571188	6.711633	34.031146	20.241558	8.553699	4.692344	36.358951	21.334479	-1.859966	-3.725663	52.961083	32.374453	-22.584197	-10.409386	64.240717	50.096892
-0.655000	-3.835761	-5.011433	94.526577	-0.007167	-0.268946	-0.005731	93.146659	-0.040756	-2.146199	28.343374	1.268589	-18.905205	-35.100535	18.559645	6.711411	34.047758	20.224236	8.555741	4.693222	36.354552	21.316072	-1.866306	-3.711603	52.978735	32.380000	-22.559822	-10.445692	64.195832	50.081833
-0.645000	-3.835761	-5.011433	94.526577	-0.007175	-0.268954	-0.005725	93.158685	-0.033222	-2.144851	28.345580	1.228613	-18.895784	-35.091756	18.533554	6.701313	34.076654	20.194562	8.555686	4.690999	36.350485	21.282650	-1.887164	-3.696751	53.014283	32.371972	-22.517601	-10.468161	64.153060	50.050778
